<svg width="215" height="35" viewBox="0 0 215 35" fill="none" xmlns="http://www.w3.org/2000/svg">
<g id="Group">
<path id="Vector" d="M79.9413 12.7631C80.8613 9.32344 78.9316 5.84137 75.2702 5.84137H56.3925L57.8127 11.1447H59.766L54.9393 29.1731H58.9262C60.1058 29.1731 61.1343 28.3805 61.441 27.2434L62.63 22.8082H71.0474C75.0862 22.8082 77.936 20.2509 78.7806 17.0944L79.9413 12.7678V12.7631ZM73.9633 12.7772L73.3216 15.1741C72.9771 16.4574 71.7221 17.5002 70.5142 17.5002H64.0644L65.2439 13.098L60.1482 11.1447H72.8639C73.7132 11.1447 74.2039 11.876 73.9633 12.7772ZM113.219 5.84137L111.799 11.1447H99.8948L105.009 13.1122L101.206 27.2481C100.9 28.3852 99.8712 29.1779 98.6916 29.1779H94.2093L99.5267 11.1494H93.426L92.0011 5.84609H113.224L113.219 5.84137ZM81.9843 5.84137H90.8027L89.3825 11.1447H83.7678L88.8871 13.1122L85.0842 27.2481C84.7775 28.3852 83.7489 29.1779 82.5693 29.1779H78.573L83.3998 11.1494L81.9843 5.84609V5.84137Z" fill="#DC0028"/>
<path id="Vector_2" d="M4.68994 17.5H22.6051L18.689 32.1077C18.2313 33.811 16.6885 35 14.9238 35H0L4.68994 17.5ZM25.6248 6.23281L22.6051 17.5H37.529C39.2936 17.5 40.8412 16.3157 41.2942 14.6077L45.2103 0H9.37517L25.6201 6.23281H25.6248ZM163.832 13.6641L163.101 16.3912C162.388 19.0523 160.053 20.6188 157.462 21.4162L160.312 29.1494H153.905L151.399 21.7464H146.554L145.091 27.2149C144.784 28.352 143.756 29.1446 142.576 29.1446H138.589L143.416 11.1162H141.463L140.047 5.81289H158.359C162.671 5.81289 165.044 9.11095 163.827 13.6546L163.832 13.6641ZM156.99 11.1209H143.789L148.884 13.079L147.983 16.4478H154.919C156.127 16.4478 157.382 15.4051 157.726 14.117L158.09 12.7582C158.33 11.857 157.84 11.1209 156.99 11.1209ZM214.388 5.81761H199.587C195.666 5.81761 193.396 7.96441 192.552 11.1209L192.066 12.9374C191.151 16.3535 193.727 19.7081 197.261 19.7081H203.758C204.362 19.7081 204.711 20.2319 204.541 20.8736L204.06 22.6806C203.89 23.3223 203.258 23.8461 202.654 23.8461H189.145L187.725 29.1494H203.324C206.263 29.1494 208.839 27.1724 209.604 24.332L210.274 21.8361C211.194 18.4059 208.608 15.0371 205.06 15.0371H199.115C198.299 15.0371 197.704 14.2633 197.917 13.4706L198.025 13.0696L192.929 11.1162H212.977L214.397 5.81289L214.388 5.81761ZM189.589 12.5317L186.442 24.2707C185.72 26.9743 182.941 29.1635 180.237 29.1635H169.211C165.214 29.1635 163.242 25.3087 164.091 22.1475L167.05 11.1115C167.899 7.95026 170.249 5.79873 174.198 5.79873H184.602C188.046 5.79873 190.514 9.08735 189.589 12.5317ZM182.427 11.1115H167.479L172.891 13.1309L170.329 22.6854C170.154 23.327 170.537 23.8508 171.183 23.8508H179.015C179.657 23.8508 180.322 23.327 180.492 22.6854L183.281 12.2769C183.455 11.6352 183.073 11.1115 182.427 11.1115ZM138.75 12.7582L137.589 17.0848C136.744 20.2413 133.89 22.7986 129.856 22.7986H121.438L120.249 27.2338C119.943 28.3709 118.914 29.1635 117.735 29.1635H113.748L118.574 11.1351H116.621L115.182 5.83176H134.074C137.735 5.83176 139.665 9.31855 138.745 12.7534L138.75 12.7582ZM131.672 11.1351H118.957L124.052 13.0932L122.873 17.5H129.323C130.53 17.5 131.786 16.4573 132.13 15.1692L132.772 12.7723C133.012 11.8711 132.522 11.1351 131.672 11.1351Z" fill="black"/>
</g>
</svg>
